<svg width="21" height="16" viewBox="0 0 21 16" fill="none" xmlns="http://www.w3.org/2000/svg">
<path d="M18.0689 3.99704C18.0819 4.17204 18.0819 4.34604 18.0819 4.52004C18.0819 9.84504 14.0289 15.981 6.62191 15.981C4.33991 15.981 2.21991 15.32 0.435913 14.172C0.759913 14.209 1.07191 14.222 1.40891 14.222C3.29191 14.222 5.02491 13.586 6.40991 12.501C4.63891 12.464 3.15491 11.304 2.64291 9.70804C2.89191 9.74504 3.14191 9.77004 3.40391 9.77004C3.76491 9.77004 4.12791 9.72004 4.46491 9.63304C2.61791 9.25904 1.23491 7.63804 1.23491 5.68004V5.63004C1.77191 5.92904 2.39491 6.11604 3.05491 6.14104C1.96991 5.41904 1.25891 4.18404 1.25891 2.78704C1.25891 2.03904 1.45791 1.35304 1.80691 0.755043C3.78991 3.19804 6.77091 4.79504 10.1129 4.97004C10.0509 4.67004 10.0129 4.35904 10.0129 4.04704C10.0129 1.82704 11.8089 0.019043 14.0409 0.019043C15.2009 0.019043 16.2479 0.505043 16.9839 1.29104C17.8939 1.11604 18.7659 0.779043 19.5399 0.318043C19.2409 1.25304 18.6039 2.03904 17.7689 2.53804C18.5799 2.45004 19.3659 2.22604 20.0879 1.91404C19.5399 2.71204 18.8549 3.42304 18.0689 3.99704Z" fill="white"/>
</svg>
