<svg width="25" height="24" viewBox="0 0 25 24" fill="none" xmlns="http://www.w3.org/2000/svg">
<path d="M21.0999 4.5H3.09991C2.901 4.5 2.71024 4.57902 2.56958 4.71967C2.42893 4.86032 2.34991 5.05109 2.34991 5.25V18C2.34991 18.3978 2.50795 18.7794 2.78925 19.0607C3.07056 19.342 3.45209 19.5 3.84991 19.5H20.3499C20.7477 19.5 21.1293 19.342 21.4106 19.0607C21.6919 18.7794 21.8499 18.3978 21.8499 18V5.25C21.8499 5.05109 21.7709 4.86032 21.6302 4.71967C21.4896 4.57902 21.2988 4.5 21.0999 4.5ZM12.0999 12.4828L5.02835 6H19.1715L12.0999 12.4828ZM9.35398 12L3.84991 17.0447V6.95531L9.35398 12ZM10.464 13.0172L11.589 14.0531C11.7273 14.1801 11.9083 14.2506 12.0962 14.2506C12.284 14.2506 12.465 14.1801 12.6034 14.0531L13.7284 13.0172L19.1659 18H5.02835L10.464 13.0172ZM14.8459 12L20.3499 6.95438V17.0456L14.8459 12Z" fill="white"/>
</svg>
