<svg width="56" height="56" viewBox="0 0 56 56" fill="none" xmlns="http://www.w3.org/2000/svg">
<rect width="55.9998" height="56" rx="27.9999" fill="#27337B"/>
<path d="M6.31314 14.5019C6.44451 14.5019 6.56819 14.5529 6.66113 14.6459C6.79389 14.7786 6.83862 14.9722 6.77782 15.1518L6.70026 15.3817L6.47036 15.4592C6.41866 15.4767 6.36555 15.4851 6.31035 15.4851C6.17898 15.4851 6.05599 15.4341 5.96376 15.3418C5.7716 15.1497 5.7716 14.8373 5.96376 14.6452C6.05809 14.5536 6.18177 14.5019 6.31314 14.5019ZM31.7769 37.6933L31.9943 37.8009C32.1641 37.8855 32.2696 38.0539 32.2696 38.2419C32.2696 38.5137 32.0488 38.7345 31.7769 38.7345C31.5051 38.7345 31.2843 38.5137 31.2843 38.2419C31.2843 38.0546 31.3898 37.8855 31.5596 37.8009L31.7769 37.6933ZM6.31314 13.7333C5.99031 13.7333 5.66748 13.8563 5.42151 14.1029C4.92888 14.5956 4.92888 15.3942 5.42151 15.8862C5.66748 16.1321 5.98891 16.2544 6.31105 16.2544C6.448 16.2544 6.58496 16.2321 6.71563 16.188L14.8675 24.3399H26.8164L31.2172 28.7407V37.1127C30.8015 37.3188 30.515 37.7464 30.515 38.2419C30.515 38.9385 31.0796 39.5031 31.7762 39.5031C32.4729 39.5031 33.0375 38.9385 33.0375 38.2419C33.0375 37.7464 32.751 37.3188 32.3353 37.1127V28.2774L27.2797 23.2218H15.3307L7.50664 15.3977C7.65478 14.9582 7.55485 14.453 7.20477 14.1029C6.9588 13.857 6.63597 13.7333 6.31314 13.7333Z" fill="white"/>
<path d="M17.6151 3.79608C17.8869 3.79608 18.1078 4.01689 18.1078 4.28871C18.1078 4.47598 18.0022 4.64508 17.8324 4.72893L17.6151 4.83655L17.3978 4.72893C17.228 4.64438 17.1225 4.47598 17.1225 4.28871C17.1225 4.01689 17.344 3.79608 17.6151 3.79608ZM35.3638 41.6064L35.5811 41.714C35.7509 41.7986 35.8565 41.967 35.8565 42.1542C35.8565 42.4261 35.6356 42.6469 35.3638 42.6469C35.092 42.6469 34.8712 42.4261 34.8712 42.1542C34.8712 41.967 34.9767 41.7979 35.1465 41.714L35.3638 41.6064ZM17.6151 3.02744C16.9184 3.02744 16.3538 3.59204 16.3538 4.28871C16.3538 4.78414 16.6403 5.21178 17.0561 5.41792V15.8435L21.3025 19.9383H28.7039L34.8048 26.0393V41.0264C34.389 41.2326 34.1025 41.6602 34.1025 42.1556C34.1025 42.8523 34.6672 43.4169 35.3638 43.4169C36.0605 43.4169 36.6251 42.8523 36.6251 42.1556C36.6251 41.6602 36.3386 41.2326 35.9228 41.0264V25.576L29.1665 18.8196H21.7539L18.1741 15.3677V5.41722C18.5899 5.21108 18.8764 4.78344 18.8764 4.28801C18.8764 3.59204 18.3118 3.02744 17.6151 3.02744Z" fill="white"/>
<path d="M49.5652 14.7465C49.6966 14.7465 49.8202 14.7975 49.9132 14.8904C50.0061 14.9833 50.0571 15.107 50.0571 15.2384C50.0571 15.3698 50.0061 15.4934 49.9132 15.5864C49.8209 15.6786 49.698 15.7296 49.5666 15.7296C49.5121 15.7296 49.4583 15.7205 49.4066 15.7038L49.1767 15.6262L49.0991 15.3963C49.039 15.2167 49.0837 15.0232 49.2158 14.8904C49.3101 14.7982 49.4338 14.7465 49.5652 14.7465ZM38.9502 45.24L39.1675 45.3476C39.3373 45.4321 39.4428 45.6005 39.4428 45.7878C39.4428 46.0596 39.222 46.2804 38.9502 46.2804C38.6784 46.2804 38.4576 46.0596 38.4576 45.7878C38.4576 45.6005 38.5631 45.4314 38.7329 45.3469L38.9502 45.24ZM49.5652 13.9778C49.2424 13.9778 48.9195 14.1008 48.6736 14.3475C48.3235 14.6975 48.2236 15.2028 48.3717 15.6423L42.421 21.593V29.1397L38.3912 33.1695V44.66C37.9754 44.8661 37.6889 45.2938 37.6889 45.7892C37.6889 46.4859 38.2535 47.0505 38.9502 47.0505C39.6469 47.0505 40.2115 46.4859 40.2115 45.7892C40.2115 45.2938 39.925 44.8661 39.5092 44.66V33.6321L43.539 29.6023V22.0556L49.162 16.4326C49.2934 16.4766 49.4303 16.499 49.5666 16.499C49.8887 16.499 50.2109 16.3767 50.4561 16.1307C50.9488 15.6381 50.9488 14.8394 50.4561 14.3475C50.2109 14.1015 49.888 13.9778 49.5652 13.9778Z" fill="white"/>
<path d="M9.84163 9.27298C9.973 9.27298 10.0967 9.32399 10.1896 9.41692C10.3224 9.54969 10.3671 9.74325 10.3063 9.92283L10.2287 10.1527L9.99955 10.2303C9.94784 10.2478 9.89474 10.2561 9.84023 10.2561C9.70887 10.2561 9.58588 10.2051 9.49364 10.1129C9.40071 10.02 9.3497 9.89628 9.3497 9.76491C9.3497 9.63354 9.40071 9.50986 9.49364 9.41693C9.58658 9.32399 9.71026 9.27298 9.84163 9.27298ZM16.8649 19.2535C16.9963 19.2535 17.1193 19.3045 17.2115 19.3967C17.3045 19.4897 17.3555 19.6133 17.3555 19.7447C17.3555 19.8761 17.3045 19.9998 17.2115 20.0927C17.1186 20.1856 16.9949 20.2367 16.8635 20.2367C16.7322 20.2367 16.6085 20.1856 16.5156 20.0927C16.3828 19.9599 16.3381 19.7664 16.3989 19.5868L16.4764 19.3569L16.7063 19.2793C16.7566 19.2619 16.8104 19.2535 16.8649 19.2535ZM9.84163 8.50433C9.5188 8.50433 9.19597 8.62732 8.95 8.87398C8.45737 9.36661 8.45737 10.1653 8.95 10.6572C9.19597 10.9032 9.5174 11.0255 9.83953 11.0255C9.97649 11.0255 10.1135 11.0031 10.2441 10.9591L12.1636 12.8786V15.8365L15.6687 19.3415C15.5205 19.7811 15.6204 20.2863 15.9705 20.6363C16.2165 20.8823 16.5393 21.006 16.8622 21.006C17.185 21.006 17.5078 20.883 17.7538 20.6363C18.2464 20.1437 18.2464 19.345 17.7538 18.8531C17.5078 18.6071 17.1864 18.4848 16.8643 18.4848C16.7273 18.4848 16.5903 18.5072 16.4597 18.5512L13.2824 15.3739V12.416L11.0351 10.1688C11.1833 9.72928 11.0833 9.22407 10.7333 8.87398C10.4873 8.62732 10.1645 8.50433 9.84163 8.50433Z" fill="white"/>
<path d="M2.66128 25.1784C2.93311 25.1784 3.15392 25.3992 3.15392 25.671C3.15392 25.8583 3.0484 26.0274 2.8786 26.1112L2.66128 26.2188L2.44397 26.1112C2.27417 26.0274 2.16865 25.8583 2.16865 25.671C2.16865 25.3992 2.39016 25.1784 2.66128 25.1784ZM6.80288 34.3469C6.93425 34.3469 7.05723 34.3979 7.14947 34.4902C7.24241 34.5831 7.29342 34.7068 7.29342 34.8381C7.29342 34.9695 7.24241 35.0932 7.14947 35.1861C7.05654 35.2791 6.93286 35.3301 6.80149 35.3301C6.67012 35.3301 6.54644 35.2791 6.4535 35.1861C6.32073 35.0534 6.27601 34.8598 6.33681 34.6802L6.41437 34.4503L6.64426 34.3728C6.69457 34.3553 6.74838 34.3469 6.80288 34.3469ZM2.66128 24.4097C1.96461 24.4097 1.40001 24.9743 1.40001 25.671C1.40001 26.1664 1.6865 26.5941 2.10227 26.8002V30.9306L5.60729 34.4357C5.45915 34.8752 5.55907 35.3804 5.90916 35.7305C6.15512 35.9764 6.47795 36.1001 6.80079 36.1001C7.12362 36.1001 7.44645 35.9771 7.69241 35.7305C8.18505 35.2378 8.18505 34.4391 7.69241 33.9472C7.44645 33.7012 7.12501 33.579 6.80288 33.579C6.66592 33.579 6.52896 33.6013 6.3983 33.6453L3.221 30.468V26.8009C3.63676 26.5948 3.92326 26.1671 3.92326 25.6717C3.92256 24.9743 3.35796 24.4097 2.66128 24.4097Z" fill="white"/>
<path d="M41.6526 6.31164C41.9244 6.31164 42.1452 6.53245 42.1452 6.80428C42.1452 6.99154 42.0397 7.16065 41.8699 7.2445L41.6526 7.35211L41.4353 7.2445C41.2655 7.16065 41.16 6.99154 41.16 6.80428C41.16 6.53245 41.3815 6.31164 41.6526 6.31164ZM39.137 26.3733L39.3544 26.4809C39.5242 26.5647 39.6297 26.7338 39.6297 26.9211C39.6297 27.1929 39.4089 27.4137 39.137 27.4137C38.8652 27.4137 38.6444 27.1929 38.6444 26.9211C38.6444 26.7338 38.7499 26.5647 38.9197 26.4809L39.137 26.3733ZM41.6526 5.543C40.9559 5.543 40.3913 6.1076 40.3913 6.80428C40.3913 7.2997 40.6778 7.72735 41.0936 7.93348V12.8584L38.578 15.374V25.7933C38.1623 25.9994 37.8758 26.4271 37.8758 26.9225C37.8758 27.6192 38.4404 28.1838 39.137 28.1838C39.8337 28.1838 40.3983 27.6192 40.3983 26.9225C40.3983 26.4271 40.1118 25.9994 39.6961 25.7933V15.8365L42.2116 13.321V7.93278C42.6274 7.72665 42.9139 7.299 42.9139 6.80358C42.9139 6.1076 42.3493 5.543 41.6526 5.543Z" fill="white"/>
<path d="M46.6837 10.085C46.9555 10.085 47.1763 10.3058 47.1763 10.5776C47.1763 10.7649 47.0708 10.934 46.901 11.0178L46.6837 11.1255L46.4664 11.0178C46.2966 10.9333 46.1911 10.7649 46.1911 10.5776C46.191 10.3058 46.4126 10.085 46.6837 10.085ZM43.8006 15.4802C43.8551 15.4802 43.9089 15.4893 43.9606 15.506L44.1905 15.5836L44.268 15.8135C44.3281 15.9931 44.2834 16.1866 44.1513 16.3194C44.0584 16.4123 43.9347 16.4633 43.8034 16.4633C43.672 16.4633 43.5483 16.4123 43.4554 16.3194C43.2632 16.1272 43.2632 15.8149 43.4554 15.6227C43.5462 15.5305 43.6692 15.4802 43.8006 15.4802ZM46.6837 9.31635C45.987 9.31635 45.4224 9.88095 45.4224 10.5776C45.4224 11.073 45.7089 11.5007 46.1247 11.7068V12.8584L44.2051 14.7779C44.0738 14.7339 43.9368 14.7115 43.8006 14.7115C43.4784 14.7115 43.1563 14.8338 42.911 15.0798C42.4184 15.5724 42.4184 16.3711 42.911 16.863C43.157 17.109 43.4798 17.2327 43.8027 17.2327C44.1255 17.2327 44.4483 17.1097 44.6943 16.863C45.0444 16.513 45.1443 16.0077 44.9961 15.5682L47.2434 13.321V11.7061C47.6592 11.5 47.9457 11.0723 47.9457 10.5769C47.945 9.88095 47.3804 9.31635 46.6837 9.31635Z" fill="white"/>
<path d="M36.6213 3.79608C36.8931 3.79608 37.114 4.01689 37.114 4.28871C37.114 4.47598 37.0084 4.64508 36.8386 4.72893L36.6213 4.83655L36.404 4.72893C36.2342 4.64438 36.1287 4.47598 36.1287 4.28871C36.1287 4.01689 36.3502 3.79608 36.6213 3.79608ZM24.047 13.8548C24.2343 13.8548 24.4034 13.9604 24.4872 14.1302L24.5948 14.3475L24.4872 14.5648C24.4027 14.7346 24.2343 14.8401 24.047 14.8401C23.7752 14.8401 23.5544 14.6193 23.5544 14.3475C23.5544 14.0757 23.7752 13.8548 24.047 13.8548ZM36.6213 3.02744C35.9246 3.02744 35.36 3.59204 35.36 4.28871C35.36 4.78414 35.6465 5.21178 36.0623 5.41792V7.82727L30.1011 13.7885H25.1762C24.9701 13.3727 24.5424 13.0862 24.047 13.0862C23.3503 13.0862 22.7857 13.6508 22.7857 14.3475C22.7857 15.0441 23.3503 15.6088 24.047 15.6088C24.5424 15.6088 24.9701 15.3223 25.1762 14.9065H30.5644L37.181 8.28986V5.41722C37.5968 5.21108 37.8833 4.78344 37.8833 4.28801C37.8826 3.59204 37.318 3.02744 36.6213 3.02744Z" fill="white"/>
<path d="M28.7088 2.16864C28.8402 2.16864 28.9639 2.21965 29.0568 2.31259C29.1896 2.44535 29.2343 2.63891 29.1735 2.81849L29.096 3.04839L28.8661 3.12595C28.8144 3.14342 28.7612 3.15181 28.706 3.15181C28.5747 3.15181 28.4517 3.1008 28.3595 3.00856C28.2665 2.91562 28.2155 2.79194 28.2155 2.66057C28.2155 2.5292 28.2665 2.40552 28.3595 2.31259C28.4524 2.21965 28.5775 2.16864 28.7088 2.16864ZM24.0474 10.0815C24.2346 10.0815 24.4037 10.187 24.4876 10.3568L24.5952 10.5741L24.4876 10.7914C24.403 10.9612 24.2346 11.0668 24.0474 11.0668C23.7755 11.0668 23.5547 10.8459 23.5547 10.5741C23.5547 10.3023 23.7755 10.0815 24.0474 10.0815ZM28.7088 1.39999C28.386 1.39999 28.0632 1.52298 27.8172 1.76964C27.3246 2.26227 27.3246 3.06097 27.8172 3.5529C28.0632 3.79886 28.3846 3.92115 28.7067 3.92115C28.8437 3.92115 28.9807 3.89879 29.1113 3.85477L32.0573 6.80077L28.843 10.0151H25.1759C24.9697 9.59934 24.5421 9.31284 24.0467 9.31284C23.35 9.31284 22.7854 9.87745 22.7854 10.5741C22.7854 11.2708 23.35 11.8354 24.0467 11.8354C24.5421 11.8354 24.9697 11.5489 25.1759 11.1331H29.3063L33.6386 6.80077L29.9023 3.06446C30.0505 2.62494 29.9505 2.11973 29.6005 1.76964C29.3545 1.52368 29.0317 1.39999 28.7088 1.39999Z" fill="white"/>
<path d="M22.4196 2.16864C22.551 2.16864 22.6747 2.21965 22.7676 2.31259C22.9004 2.44535 22.9451 2.63891 22.8843 2.81849L22.8067 3.04839L22.5768 3.12595C22.5251 3.14342 22.472 3.15181 22.4168 3.15181C22.2855 3.15181 22.1625 3.1008 22.0702 3.00856C21.8781 2.8164 21.8781 2.50405 22.0702 2.31189C22.1646 2.22035 22.2883 2.16864 22.4196 2.16864ZM25.6696 5.41791C25.801 5.41791 25.9239 5.46892 26.0162 5.56116C26.2083 5.75332 26.2083 6.06567 26.0162 6.25783C25.9232 6.35076 25.7996 6.40177 25.6682 6.40177C25.5368 6.40177 25.4131 6.35076 25.3202 6.25783C25.1874 6.12506 25.1427 5.9315 25.2035 5.75192L25.2811 5.52203L25.511 5.44446C25.5613 5.42629 25.6151 5.41791 25.6696 5.41791ZM22.4196 1.39999C22.0968 1.39999 21.774 1.52298 21.528 1.76964C21.0354 2.26227 21.0354 3.06097 21.528 3.5529C21.774 3.79886 22.0954 3.92115 22.4175 3.92115C22.5545 3.92115 22.6914 3.89879 22.8221 3.85477L24.4733 5.50595C24.3252 5.94548 24.4251 6.45069 24.7752 6.80077C25.0211 7.04674 25.344 7.17042 25.6668 7.17042C25.9896 7.17042 26.3125 7.04744 26.5584 6.80077C27.0511 6.30814 27.0511 5.50945 26.5584 5.01752C26.3125 4.77155 25.991 4.64927 25.6689 4.64927C25.5319 4.64927 25.395 4.67163 25.2643 4.71565L23.6131 3.06446C23.7613 2.62493 23.6613 2.11972 23.3112 1.76964C23.0653 1.52368 22.7425 1.39999 22.4196 1.39999Z" fill="white"/>
<path d="M35.7299 13.4887C35.8613 13.4887 35.985 13.5397 36.0779 13.6326C36.2701 13.8248 36.2701 14.1371 36.0779 14.3293C35.9857 14.4215 35.8627 14.4725 35.7313 14.4725C35.6768 14.4725 35.623 14.4635 35.5713 14.4467L35.3414 14.3691L35.2639 14.1392C35.2038 13.9596 35.2485 13.7661 35.3806 13.6333C35.4749 13.5404 35.5986 13.4887 35.7299 13.4887ZM35.732 19.2535C35.8634 19.2535 35.9864 19.3045 36.0786 19.3968C36.2708 19.5889 36.2708 19.9013 36.0786 20.0934C35.9857 20.1864 35.862 20.2374 35.7306 20.2374C35.5993 20.2374 35.4756 20.1864 35.3827 20.0934C35.2499 19.9607 35.2052 19.7671 35.266 19.5875L35.3435 19.3576L35.5734 19.2801C35.6237 19.2619 35.6775 19.2535 35.732 19.2535ZM35.7299 12.72C35.4071 12.72 35.0843 12.843 34.8383 13.0897C34.4882 13.4398 34.3883 13.945 34.5365 14.3845L33.547 15.374V18.3528L34.5365 19.3423C34.3883 19.7818 34.4882 20.287 34.8383 20.6371C35.0843 20.883 35.4071 21.0067 35.7299 21.0067C36.0528 21.0067 36.3756 20.8837 36.6216 20.6371C37.1142 20.1444 37.1142 19.3457 36.6216 18.8538C36.3756 18.6079 36.0535 18.4856 35.732 18.4856C35.5951 18.4856 35.4581 18.5079 35.3275 18.552L34.6657 17.8902V15.8379L35.3275 15.1762C35.4588 15.2202 35.5958 15.2426 35.732 15.2426C36.0542 15.2426 36.3763 15.1203 36.6216 14.8743C37.1142 14.3817 37.1142 13.583 36.6216 13.0911C36.3756 12.8437 36.0528 12.72 35.7299 12.72Z" fill="white"/>
<path d="M4.81049 19.7776C4.94186 19.7776 5.06554 19.8286 5.15848 19.9215C5.29125 20.0543 5.33597 20.2479 5.27517 20.4274L5.19761 20.6573L4.96771 20.7349C4.91601 20.7524 4.8629 20.7608 4.8077 20.7608C4.67633 20.7608 4.55335 20.7097 4.46111 20.6175C4.36817 20.5246 4.31716 20.4009 4.31716 20.2695C4.31716 20.1381 4.36817 20.0145 4.46111 19.9215C4.55404 19.8286 4.67912 19.7776 4.81049 19.7776ZM24.0399 27.6904C24.3117 27.6904 24.5325 27.9112 24.5325 28.1831C24.5325 28.4549 24.3117 28.6757 24.0399 28.6757C23.8526 28.6757 23.6835 28.5702 23.5997 28.4004L23.4921 28.1831L23.5997 27.9658C23.6835 27.7959 23.8526 27.6904 24.0399 27.6904ZM4.81049 19.0089C4.48766 19.0089 4.16483 19.1319 3.91887 19.3786C3.42623 19.8712 3.42623 20.6699 3.91887 21.1618C4.16483 21.4078 4.48627 21.5301 4.8084 21.5301C4.94536 21.5301 5.08231 21.5077 5.21298 21.4637L12.4914 28.7421H22.9107C23.1168 29.1578 23.5445 29.4443 24.0399 29.4443C24.7366 29.4443 25.3012 28.8797 25.3012 28.1831C25.3012 27.4864 24.7366 26.9218 24.0399 26.9218C23.5445 26.9218 23.1168 27.2083 22.9107 27.6241H12.9546L6.00399 20.6734C6.15213 20.2339 6.05221 19.7287 5.70212 19.3786C5.45616 19.1326 5.13332 19.0089 4.81049 19.0089Z" fill="white"/>
<path d="M52.081 19.7776C52.2123 19.7776 52.336 19.8286 52.429 19.9215C52.6211 20.1137 52.6211 20.426 52.429 20.6182C52.3367 20.7104 52.2137 20.7615 52.0824 20.7615C52.0279 20.7615 51.9741 20.7524 51.9224 20.7356L51.6925 20.658L51.6149 20.4281C51.5548 20.2486 51.5995 20.055 51.7316 19.9222C51.8259 19.8293 51.9496 19.7776 52.081 19.7776ZM46.9863 27.631L47.2036 27.7387C47.3734 27.8232 47.4789 27.9916 47.4789 28.1796C47.4789 28.4514 47.2581 28.6722 46.9863 28.6722C46.7144 28.6722 46.4936 28.4514 46.4936 28.1796C46.4936 27.9923 46.5991 27.8232 46.7689 27.7387L46.9863 27.631ZM52.081 19.0089C51.7581 19.0089 51.4353 19.1319 51.1893 19.3786C50.8393 19.7287 50.7393 20.2339 50.8875 20.6734L46.4279 25.1329V27.0504C46.0122 27.2565 45.7257 27.6841 45.7257 28.1796C45.7257 28.8762 46.2903 29.4408 46.987 29.4408C47.6836 29.4408 48.2482 28.8762 48.2482 28.1796C48.2482 27.6841 47.9617 27.2565 47.546 27.0504V25.5962L51.6785 21.4637C51.8099 21.5077 51.9468 21.5301 52.0831 21.5301C52.4052 21.5301 52.7273 21.4078 52.9726 21.1618C53.4652 20.6692 53.4652 19.8705 52.9726 19.3786C52.7266 19.1326 52.4038 19.0089 52.081 19.0089Z" fill="white"/>
<path d="M27.8167 31.4673C28.0885 31.4673 28.3093 31.6881 28.3093 31.9599C28.3093 32.1472 28.2038 32.3163 28.034 32.4001L27.8167 32.5078L27.5994 32.4001C27.4296 32.3156 27.3241 32.1472 27.3241 31.9599C27.3241 31.6881 27.5456 31.4673 27.8167 31.4673ZM27.8132 52.8461C28.085 52.8461 28.3058 53.0669 28.3058 53.3387C28.3058 53.6105 28.085 53.8314 27.8132 53.8314C27.6259 53.8314 27.4568 53.7258 27.373 53.556L27.2654 53.3387L27.373 53.1214C27.4568 52.9516 27.6259 52.8461 27.8132 52.8461ZM27.8167 30.6986C27.12 30.6986 26.5554 31.2632 26.5554 31.9599C26.5554 32.4553 26.8419 32.883 27.2577 33.0891V48.0763L21.4363 53.8977H26.6847C26.8908 54.3135 27.3185 54.6 27.8139 54.6C28.5106 54.6 29.0752 54.0354 29.0752 53.3387C29.0752 52.642 28.5106 52.0774 27.8139 52.0774C27.3185 52.0774 26.8908 52.3639 26.6847 52.7797H24.1356L28.3764 48.5389V33.0884C28.7922 32.8823 29.0787 32.4546 29.0787 31.9592C29.078 31.2632 28.5134 30.6986 27.8167 30.6986Z" fill="white"/>
<path d="M53.3389 24.8088C53.4702 24.8088 53.5939 24.8598 53.6868 24.9527C53.879 25.1449 53.879 25.4572 53.6868 25.6494C53.5946 25.7416 53.4716 25.7927 53.3403 25.7927C53.2858 25.7927 53.232 25.7836 53.1802 25.7668L52.9503 25.6892L52.8728 25.4593C52.8127 25.2798 52.8574 25.0862 52.9895 24.9534C53.0838 24.8605 53.2075 24.8088 53.3389 24.8088ZM42.9573 47.7556L43.1746 47.8632C43.3444 47.9478 43.4499 48.1162 43.4499 48.3042C43.4499 48.576 43.2291 48.7968 42.9573 48.7968C42.6854 48.7968 42.4646 48.576 42.4646 48.3042C42.4646 48.1169 42.5701 47.9478 42.7399 47.8632L42.9573 47.7556ZM53.3389 24.0401C53.016 24.0401 52.6932 24.1631 52.4472 24.4098C52.0971 24.7599 51.9972 25.2651 52.1454 25.7046L51.1559 26.6941V31.3975H46.4525L42.3982 35.4517V47.1757C41.9825 47.3818 41.696 47.8094 41.696 48.3049C41.696 49.0015 42.2606 49.5661 42.9573 49.5661C43.6539 49.5661 44.2185 49.0015 44.2185 48.3049C44.2185 47.8094 43.932 47.3818 43.5163 47.1757V35.915L46.9158 32.5155H52.2746V27.1567L52.9364 26.4949C53.0677 26.5389 53.2047 26.5613 53.341 26.5613C53.6631 26.5613 53.9852 26.439 54.2305 26.1931C54.7231 25.7004 54.7231 24.9017 54.2305 24.4098C53.9845 24.1638 53.6617 24.0401 53.3389 24.0401Z" fill="white"/>
<path d="M51.7112 35.2371C51.983 35.2371 52.2038 35.4579 52.2038 35.7298C52.2038 36.0016 51.983 36.2224 51.7112 36.2224C51.5239 36.2224 51.3548 36.1169 51.271 35.9471L51.1634 35.7298L51.271 35.5125C51.3548 35.3427 51.5239 35.2371 51.7112 35.2371ZM48.1699 43.2911C48.3012 43.2911 48.4242 43.3421 48.5164 43.4344C48.7086 43.6265 48.7086 43.9389 48.5164 44.1311C48.4235 44.224 48.2998 44.275 48.1685 44.275C48.0371 44.275 47.9134 44.224 47.8205 44.1311C47.6877 43.9983 47.643 43.8047 47.7038 43.6252L47.7813 43.3953L48.0112 43.3177C48.0615 43.2995 48.1154 43.2911 48.1699 43.2911ZM51.7112 34.4685C51.2158 34.4685 50.7881 34.755 50.582 35.1708H47.7094L45.9841 36.896V42.3904L46.9736 43.3799C46.8254 43.8194 46.9253 44.3246 47.2754 44.6747C47.5214 44.9207 47.8442 45.0443 48.1671 45.0443C48.4899 45.0443 48.8127 44.9214 49.0587 44.6747C49.5513 44.1821 49.5513 43.3834 49.0587 42.8914C48.8127 42.6455 48.4906 42.5232 48.1692 42.5232C48.0322 42.5232 47.8952 42.5455 47.7646 42.5896L47.1028 41.9278V37.36L48.1726 36.2902H50.582C50.7881 36.7059 51.2158 36.9924 51.7112 36.9924C52.4079 36.9924 52.9725 36.4278 52.9725 35.7312C52.9725 35.0345 52.4079 34.4685 51.7112 34.4685Z" fill="white"/>
<path d="M38.2477 50.6981C38.379 50.6981 38.502 50.7491 38.5943 50.8414C38.6872 50.9343 38.7382 51.058 38.7382 51.1893C38.7382 51.3207 38.6872 51.4444 38.5943 51.5373C38.5013 51.6303 38.3776 51.6813 38.2463 51.6813C38.1149 51.6813 37.9912 51.6303 37.8983 51.5373C37.7655 51.4046 37.7208 51.211 37.7816 51.0314L37.8592 50.8015L38.0891 50.724C38.1394 50.7065 38.1932 50.6981 38.2477 50.6981ZM31.5905 52.7867L31.8078 52.8943C31.9776 52.9789 32.0831 53.1473 32.0831 53.3346C32.0831 53.6064 31.8623 53.8272 31.5905 53.8272C31.3187 53.8272 31.0979 53.6064 31.0979 53.3346C31.0979 53.1473 31.2034 52.9782 31.3732 52.8943L31.5905 52.7867ZM31.0315 43.185V52.2068C30.6157 52.4129 30.3292 52.8405 30.3292 53.336C30.3292 54.0326 30.8938 54.5972 31.5905 54.5972C32.2872 54.5972 32.8518 54.0326 32.8518 53.336C32.8518 52.8405 32.5653 52.4129 32.1495 52.2068V45.8843L37.0521 50.7869C36.9039 51.2264 37.0039 51.7316 37.3539 52.0817C37.5999 52.3276 37.9227 52.4513 38.2456 52.4513C38.5684 52.4513 38.8912 52.3283 39.1372 52.0817C39.6298 51.589 39.6298 50.7904 39.1372 50.2984C38.8912 50.0524 38.5698 49.9302 38.2477 49.9302C38.1107 49.9302 37.9738 49.9525 37.8431 49.9965L31.0315 43.185Z" fill="white"/>
<path d="M24.0433 32.7251C24.3152 32.7251 24.536 32.9459 24.536 33.2177C24.536 33.405 24.4305 33.5741 24.2607 33.6579L24.0433 33.7655L23.826 33.6579C23.6562 33.5734 23.5507 33.405 23.5507 33.2177C23.5507 32.9459 23.7722 32.7251 24.0433 32.7251ZM19.9024 50.6981C19.957 50.6981 20.0108 50.7072 20.0625 50.7239L20.2924 50.8015L20.3699 51.0314C20.43 51.211 20.3853 51.4045 20.2532 51.5373C20.1603 51.6302 20.0366 51.6812 19.9052 51.6812C19.7739 51.6812 19.6502 51.6302 19.5573 51.5373C19.4643 51.4444 19.4133 51.3207 19.4133 51.1893C19.4133 51.0579 19.4643 50.9343 19.5573 50.8413C19.6481 50.7484 19.7711 50.6981 19.9024 50.6981ZM24.0433 31.9564C23.3467 31.9564 22.7821 32.521 22.7821 33.2177C22.7821 33.7131 23.0686 34.1408 23.4843 34.3469V46.8185L20.307 49.9958C20.1757 49.9518 20.0387 49.9294 19.9025 49.9294C19.5803 49.9294 19.2582 50.0517 19.0129 50.2977C18.5203 50.7903 18.5203 51.589 19.0129 52.0809C19.2589 52.3269 19.5817 52.4506 19.9045 52.4506C20.2274 52.4506 20.5502 52.3276 20.7962 52.0809C21.1463 51.7309 21.2462 51.2256 21.098 50.7861L24.6031 47.2811V34.3462C25.0188 34.1401 25.3053 33.7124 25.3053 33.217C25.3046 32.521 24.74 31.9564 24.0433 31.9564Z" fill="white"/>
<path d="M7.32622 28.5821C7.45759 28.5821 7.58127 28.6331 7.67421 28.726C7.80698 28.8588 7.8517 29.0523 7.7909 29.2319L7.71334 29.4618L7.48345 29.5394C7.43174 29.5568 7.37863 29.5652 7.32343 29.5652C7.19206 29.5652 7.06908 29.5142 6.97684 29.422C6.78468 29.2298 6.78468 28.9175 6.97684 28.7253C7.07117 28.6338 7.19486 28.5821 7.32622 28.5821ZM19.3807 40.6358C19.512 40.6358 19.635 40.6868 19.7273 40.7791C19.9194 40.9712 19.9194 41.2836 19.7273 41.4757C19.6343 41.5687 19.5106 41.6197 19.3793 41.6197C19.2479 41.6197 19.1242 41.5687 19.0313 41.4757C18.8985 41.343 18.8538 41.1494 18.9146 40.9698L18.9922 40.7399L19.222 40.6624C19.2724 40.6442 19.3262 40.6358 19.3807 40.6358ZM7.32622 27.8134C7.00339 27.8134 6.68056 27.9364 6.4346 28.1831C5.94197 28.6757 5.94197 29.4744 6.4346 29.9663C6.68056 30.2123 7.002 30.3346 7.32413 30.3346C7.46109 30.3346 7.59805 30.3122 7.72872 30.2682L18.1844 40.7238C18.0362 41.1634 18.1362 41.6686 18.4862 42.0187C18.7322 42.2646 19.055 42.3883 19.3779 42.3883C19.7007 42.3883 20.0235 42.2653 20.2695 42.0187C20.7621 41.526 20.7621 40.7273 20.2695 40.2354C20.0235 39.9894 19.7021 39.8672 19.38 39.8672C19.243 39.8672 19.1061 39.8895 18.9754 39.9335L8.51972 29.4779C8.66786 29.0384 8.56794 28.5331 8.21785 28.1831C7.97189 27.9371 7.64906 27.8134 7.32622 27.8134Z" fill="white"/>
<path d="M16.5005 31.4638C16.6877 31.4638 16.8568 31.5693 16.9407 31.7391L17.0483 31.9564L16.9407 32.1737C16.8561 32.3435 16.6877 32.4491 16.5005 32.4491C16.2286 32.4491 16.0078 32.2282 16.0078 31.9564C16.0078 31.6846 16.2286 31.4638 16.5005 31.4638ZM20.2703 35.1777L20.4876 35.2854C20.6574 35.3699 20.763 35.5383 20.763 35.7256C20.763 35.9974 20.5421 36.2182 20.2703 36.2182C19.9985 36.2182 19.7777 35.9974 19.7777 35.7256C19.7777 35.5383 19.8832 35.3692 20.053 35.2854L20.2703 35.1777ZM16.5005 30.6951C15.8038 30.6951 15.2392 31.2597 15.2392 31.9564C15.2392 32.6531 15.8038 33.2177 16.5005 33.2177C16.9959 33.2177 17.4235 32.9312 17.6297 32.5154H19.7113V34.5971C19.2955 34.8032 19.009 35.2309 19.009 35.7263C19.009 36.4229 19.5736 36.9876 20.2703 36.9876C20.967 36.9876 21.5316 36.4229 21.5316 35.7263C21.5316 35.2309 21.2451 34.8032 20.8293 34.5971V31.3974H17.6297C17.4228 30.9816 16.9959 30.6951 16.5005 30.6951Z" fill="white"/>
<path d="M11.0995 38.6444C11.2309 38.6444 11.3545 38.6954 11.4475 38.7883C11.5802 38.9211 11.625 39.1147 11.5642 39.2942L11.4866 39.5241L11.2567 39.6017C11.205 39.6192 11.1519 39.6276 11.0967 39.6276C10.9653 39.6276 10.8423 39.5766 10.7501 39.4843C10.6572 39.3914 10.6062 39.2677 10.6062 39.1363C10.6062 39.005 10.6572 38.8813 10.7501 38.7883C10.843 38.6954 10.9681 38.6444 11.0995 38.6444ZM16.1292 49.4404C16.1837 49.4404 16.2375 49.4494 16.2892 49.4662L16.5191 49.5438L16.5967 49.7737C16.6568 49.9533 16.6121 50.1468 16.48 50.2796C16.3871 50.3725 16.2634 50.4235 16.132 50.4235C16.0007 50.4235 15.877 50.3725 15.784 50.2796C15.6911 50.1866 15.6401 50.063 15.6401 49.9316C15.6401 49.8002 15.6911 49.6765 15.784 49.5836C15.8749 49.4907 15.9979 49.4404 16.1292 49.4404ZM11.0995 37.8757C10.7767 37.8757 10.4538 37.9987 10.2079 38.2454C9.71524 38.738 9.71524 39.5367 10.2079 40.0287C10.4538 40.2746 10.7753 40.3969 11.0974 40.3969C11.2344 40.3969 11.3713 40.3745 11.502 40.3305L18.2213 47.0499L16.5331 48.7381C16.4017 48.6941 16.2648 48.6717 16.1285 48.6717C15.8064 48.6717 15.4843 48.794 15.239 49.04C14.7464 49.5326 14.7464 50.3313 15.239 50.8232C15.485 51.0692 15.8078 51.1929 16.1306 51.1929C16.4535 51.1929 16.7763 51.0699 17.0223 50.8232C17.3723 50.4731 17.4723 49.9679 17.3241 49.5284L19.8027 47.0499L12.293 39.5402C12.4411 39.1007 12.3412 38.5955 11.9911 38.2454C11.7452 37.9994 11.4223 37.8757 11.0995 37.8757Z" fill="white"/>
<path d="M6.0687 39.9021C6.20007 39.9021 6.32375 39.9531 6.41669 40.046C6.54946 40.1788 6.59418 40.3724 6.53338 40.552L6.45582 40.7818L6.22593 40.8594C6.17422 40.8769 6.12111 40.8853 6.06591 40.8853C5.93454 40.8853 5.81155 40.8343 5.71932 40.742C5.52716 40.5499 5.52716 40.2375 5.71932 40.0453C5.81365 39.9538 5.93733 39.9021 6.0687 39.9021ZM11.8342 45.6669C11.9656 45.6669 12.0886 45.7179 12.1808 45.8102C12.373 46.0023 12.373 46.3147 12.1808 46.5069C12.0879 46.5998 11.9642 46.6508 11.8328 46.6508C11.7015 46.6508 11.5778 46.5998 11.4849 46.5069C11.3521 46.3741 11.3074 46.1805 11.3682 46.0009L11.4457 45.7711L11.6756 45.6935C11.7259 45.6753 11.7797 45.6669 11.8342 45.6669ZM6.0687 39.1335C5.74587 39.1335 5.42304 39.2564 5.17708 39.5031C4.68444 39.9957 4.68444 40.7944 5.17708 41.2864C5.42304 41.5323 5.74447 41.6546 6.06661 41.6546C6.20357 41.6546 6.34052 41.6322 6.4712 41.5882L10.6379 45.755C10.4898 46.1945 10.5897 46.6997 10.9398 47.0498C11.1858 47.2958 11.5086 47.4194 11.8314 47.4194C12.1543 47.4194 12.4771 47.2965 12.7231 47.0498C13.2157 46.5572 13.2157 45.7585 12.7231 45.2665C12.4771 45.0206 12.1557 44.8983 11.8335 44.8983C11.6966 44.8983 11.5596 44.9206 11.429 44.9647L7.2622 40.7979C7.41034 40.3584 7.31041 39.8532 6.96033 39.5031C6.71436 39.2571 6.39153 39.1335 6.0687 39.1335Z" fill="white"/>
</svg>
