<svg width="57" height="56" viewBox="0 0 57 56" fill="none" xmlns="http://www.w3.org/2000/svg">
<rect x="0.900085" width="55.9998" height="56" rx="27.9999" fill="white"/>
<path d="M7.21323 14.502C7.3446 14.502 7.46828 14.5531 7.56121 14.646C7.69398 14.7788 7.7387 14.9723 7.67791 15.1519L7.60034 15.3818L7.37045 15.4594C7.31874 15.4768 7.26564 15.4852 7.21043 15.4852C7.07906 15.4852 6.95608 15.4342 6.86384 15.342C6.67168 15.1498 6.67168 14.8374 6.86384 14.6453C6.95818 14.5538 7.08186 14.502 7.21323 14.502ZM32.677 37.6935L32.8943 37.8011C33.0641 37.8856 33.1697 38.054 33.1697 38.242C33.1697 38.5138 32.9488 38.7346 32.677 38.7346C32.4052 38.7346 32.1844 38.5138 32.1844 38.242C32.1844 38.0547 32.2899 37.8856 32.4597 37.8011L32.677 37.6935ZM7.21323 13.7334C6.8904 13.7334 6.56757 13.8564 6.3216 14.103C5.82897 14.5957 5.82897 15.3944 6.3216 15.8863C6.56757 16.1323 6.889 16.2546 7.21113 16.2546C7.34809 16.2546 7.48505 16.2322 7.61572 16.1882L15.7675 24.34H27.7165L32.1173 28.7408V37.1128C31.7015 37.3189 31.4151 37.7466 31.4151 38.242C31.4151 38.9387 31.9797 39.5033 32.6763 39.5033C33.373 39.5033 33.9376 38.9387 33.9376 38.242C33.9376 37.7466 33.6511 37.3189 33.2353 37.1128V28.2776L28.1798 23.222H16.2308L8.40672 15.3979C8.55486 14.9583 8.45494 14.4531 8.10486 14.103C7.85889 13.8571 7.53606 13.7334 7.21323 13.7334Z" fill="#27337B"/>
<path d="M18.5152 3.79599C18.787 3.79599 19.0078 4.0168 19.0078 4.28862C19.0078 4.47589 18.9023 4.64499 18.7325 4.72884L18.5152 4.83645L18.2979 4.72884C18.1281 4.64429 18.0226 4.47589 18.0226 4.28862C18.0226 4.0168 18.2441 3.79599 18.5152 3.79599ZM36.2639 41.6063L36.4812 41.7139C36.651 41.7985 36.7565 41.9669 36.7565 42.1542C36.7565 42.426 36.5357 42.6468 36.2639 42.6468C35.9921 42.6468 35.7713 42.426 35.7713 42.1542C35.7713 41.9669 35.8768 41.7978 36.0466 41.7139L36.2639 41.6063ZM18.5152 3.02734C17.8185 3.02734 17.2539 3.59195 17.2539 4.28862C17.2539 4.78404 17.5404 5.21169 17.9562 5.41783V15.8434L22.2026 19.9382H29.604L35.7049 26.0392V41.0263C35.2891 41.2325 35.0026 41.6601 35.0026 42.1556C35.0026 42.8522 35.5672 43.4168 36.2639 43.4168C36.9606 43.4168 37.5252 42.8522 37.5252 42.1556C37.5252 41.6601 37.2387 41.2325 36.8229 41.0263V25.5759L30.0665 18.8195H22.654L19.0742 15.3676V5.41713C19.49 5.21099 19.7765 4.78335 19.7765 4.28792C19.7765 3.59195 19.2119 3.02734 18.5152 3.02734Z" fill="#27337B"/>
<path d="M50.4653 14.7462C50.5967 14.7462 50.7203 14.7972 50.8133 14.8901C50.9062 14.9831 50.9572 15.1067 50.9572 15.2381C50.9572 15.3695 50.9062 15.4932 50.8133 15.5861C50.721 15.6783 50.598 15.7294 50.4667 15.7294C50.4122 15.7294 50.3584 15.7203 50.3067 15.7035L50.0768 15.6259L49.9992 15.396C49.9391 15.2165 49.9838 15.0229 50.1159 14.8901C50.2102 14.7979 50.3339 14.7462 50.4653 14.7462ZM39.8503 45.2397L40.0676 45.3473C40.2374 45.4319 40.3429 45.6003 40.3429 45.7875C40.3429 46.0594 40.1221 46.2802 39.8503 46.2802C39.5785 46.2802 39.3577 46.0594 39.3577 45.7875C39.3577 45.6003 39.4632 45.4312 39.633 45.3466L39.8503 45.2397ZM50.4653 13.9775C50.1425 13.9775 49.8196 14.1005 49.5736 14.3472C49.2236 14.6973 49.1236 15.2025 49.2718 15.642L43.3211 21.5927V29.1394L39.2913 33.1692V44.6597C38.8755 44.8659 38.589 45.2935 38.589 45.7889C38.589 46.4856 39.1536 47.0502 39.8503 47.0502C40.547 47.0502 41.1116 46.4856 41.1116 45.7889C41.1116 45.2935 40.8251 44.8659 40.4093 44.6597V33.6318L44.4391 29.602V22.0553L50.0621 16.4323C50.1935 16.4763 50.3304 16.4987 50.4667 16.4987C50.7888 16.4987 51.1109 16.3764 51.3562 16.1304C51.8488 15.6378 51.8488 14.8391 51.3562 14.3472C51.1109 14.1012 50.7881 13.9775 50.4653 13.9775Z" fill="#27337B"/>
<path d="M10.7417 9.27304C10.8731 9.27304 10.9968 9.32405 11.0897 9.41698C11.2225 9.54975 11.2672 9.74331 11.2064 9.92289L11.1288 10.1528L10.8996 10.2304C10.8479 10.2478 10.7948 10.2562 10.7403 10.2562C10.609 10.2562 10.486 10.2052 10.3937 10.113C10.3008 10.02 10.2498 9.89634 10.2498 9.76497C10.2498 9.6336 10.3008 9.50992 10.3937 9.41699C10.4867 9.32405 10.6103 9.27304 10.7417 9.27304ZM17.765 19.2535C17.8964 19.2535 18.0194 19.3046 18.1116 19.3968C18.2046 19.4897 18.2556 19.6134 18.2556 19.7448C18.2556 19.8761 18.2046 19.9998 18.1116 20.0928C18.0187 20.1857 17.895 20.2367 17.7636 20.2367C17.6323 20.2367 17.5086 20.1857 17.4156 20.0928C17.2829 19.96 17.2382 19.7664 17.299 19.5869L17.3765 19.357L17.6064 19.2794C17.6567 19.2619 17.7105 19.2535 17.765 19.2535ZM10.7417 8.50439C10.4189 8.50439 10.0961 8.62738 9.85009 8.87404C9.35746 9.36667 9.35746 10.1654 9.85009 10.6573C10.0961 10.9033 10.4175 11.0255 10.7396 11.0255C10.8766 11.0255 11.0135 11.0032 11.1442 10.9592L13.0637 12.8787V15.8366L16.5687 19.3416C16.4206 19.7811 16.5205 20.2863 16.8706 20.6364C17.1166 20.8824 17.4394 21.0061 17.7622 21.0061C18.0851 21.0061 18.4079 20.8831 18.6539 20.6364C19.1465 20.1438 19.1465 19.3451 18.6539 18.8531C18.4079 18.6072 18.0865 18.4849 17.7643 18.4849C17.6274 18.4849 17.4904 18.5073 17.3598 18.5513L14.1825 15.374V12.4161L11.9352 10.1689C12.0834 9.72934 11.9834 9.22413 11.6333 8.87404C11.3874 8.62738 11.0645 8.50439 10.7417 8.50439Z" fill="#27337B"/>
<path d="M3.56137 25.1783C3.83319 25.1783 4.054 25.3991 4.054 25.6709C4.054 25.8582 3.94849 26.0273 3.77869 26.1112L3.56137 26.2188L3.34405 26.1112C3.17425 26.0273 3.06874 25.8582 3.06874 25.6709C3.06874 25.3991 3.29025 25.1783 3.56137 25.1783ZM7.70297 34.3468C7.83434 34.3468 7.95732 34.3979 8.04956 34.4901C8.14249 34.583 8.1935 34.7067 8.1935 34.8381C8.1935 34.9695 8.14249 35.0931 8.04956 35.1861C7.95662 35.279 7.83294 35.33 7.70157 35.33C7.5702 35.33 7.44652 35.279 7.35359 35.1861C7.22082 35.0533 7.1761 34.8597 7.23689 34.6802L7.31445 34.4503L7.54435 34.3727C7.59466 34.3552 7.64846 34.3468 7.70297 34.3468ZM3.56137 24.4097C2.8647 24.4097 2.30009 24.9743 2.30009 25.6709C2.30009 26.1664 2.58659 26.594 3.00236 26.8002V30.9306L6.50737 34.4356C6.35924 34.8751 6.45916 35.3803 6.80924 35.7304C7.05521 35.9764 7.37804 36.1001 7.70087 36.1001C8.0237 36.1001 8.34653 35.9771 8.5925 35.7304C9.08513 35.2378 9.08513 34.4391 8.5925 33.9472C8.34653 33.7012 8.0251 33.5789 7.70297 33.5789C7.56601 33.5789 7.42905 33.6013 7.29838 33.6453L4.12108 30.468V26.8009C4.53685 26.5947 4.82334 26.1671 4.82334 25.6716C4.82265 24.9743 4.25804 24.4097 3.56137 24.4097Z" fill="#27337B"/>
<path d="M42.5527 6.31161C42.8245 6.31161 43.0453 6.53242 43.0453 6.80424C43.0453 6.99151 42.9398 7.16062 42.77 7.24447L42.5527 7.35208L42.3354 7.24447C42.1656 7.16061 42.0601 6.99151 42.0601 6.80424C42.0601 6.53242 42.2816 6.31161 42.5527 6.31161ZM40.0371 26.3732L40.2544 26.4809C40.4242 26.5647 40.5298 26.7338 40.5298 26.9211C40.5298 27.1929 40.3089 27.4137 40.0371 27.4137C39.7653 27.4137 39.5445 27.1929 39.5445 26.9211C39.5445 26.7338 39.65 26.5647 39.8198 26.4809L40.0371 26.3732ZM42.5527 5.54297C41.856 5.54297 41.2914 6.10757 41.2914 6.80424C41.2914 7.29967 41.5779 7.72732 41.9937 7.93345V12.8584L39.4781 15.3739V25.7933C39.0623 25.9994 38.7759 26.427 38.7759 26.9225C38.7759 27.6191 39.3405 28.1837 40.0371 28.1837C40.7338 28.1837 41.2984 27.6191 41.2984 26.9225C41.2984 26.427 41.0119 25.9994 40.5961 25.7933V15.8365L43.1117 13.321V7.93275C43.5275 7.72662 43.814 7.29897 43.814 6.80355C43.814 6.10757 43.2494 5.54297 42.5527 5.54297Z" fill="#27337B"/>
<path d="M47.5838 10.0851C47.8556 10.0851 48.0764 10.3059 48.0764 10.5777C48.0764 10.765 47.9709 10.9341 47.8011 11.0179L47.5838 11.1255L47.3665 11.0179C47.1967 10.9334 47.0911 10.765 47.0911 10.5777C47.0911 10.3059 47.3126 10.0851 47.5838 10.0851ZM44.7007 15.4802C44.7552 15.4802 44.809 15.4893 44.8607 15.5061L45.0906 15.5837L45.1681 15.8135C45.2282 15.9931 45.1835 16.1867 45.0514 16.3195C44.9585 16.4124 44.8348 16.4634 44.7034 16.4634C44.5721 16.4634 44.4484 16.4124 44.3555 16.3195C44.1633 16.1273 44.1633 15.8149 44.3555 15.6228C44.4463 15.5305 44.5693 15.4802 44.7007 15.4802ZM47.5838 9.31641C46.8871 9.31641 46.3225 9.88101 46.3225 10.5777C46.3225 11.0731 46.609 11.5008 47.0247 11.7069V12.8585L45.1052 14.778C44.9739 14.734 44.8369 14.7116 44.7006 14.7116C44.3785 14.7116 44.0564 14.8339 43.8111 15.0798C43.3185 15.5725 43.3185 16.3712 43.8111 16.8631C44.0571 17.1091 44.3799 17.2327 44.7027 17.2327C45.0256 17.2327 45.3484 17.1098 45.5944 16.8631C45.9444 16.513 46.0444 16.0078 45.8962 15.5683L48.1435 13.321V11.7062C48.5592 11.5001 48.8457 11.0724 48.8457 10.577C48.845 9.88101 48.2804 9.31641 47.5838 9.31641Z" fill="#27337B"/>
<path d="M37.5214 3.79599C37.7932 3.79599 38.014 4.0168 38.014 4.28862C38.014 4.47589 37.9085 4.64499 37.7387 4.72884L37.5214 4.83645L37.3041 4.72884C37.1343 4.64429 37.0288 4.47589 37.0288 4.28862C37.0288 4.0168 37.2503 3.79599 37.5214 3.79599ZM24.9471 13.8548C25.1343 13.8548 25.3034 13.9603 25.3873 14.1301L25.4949 14.3474L25.3873 14.5647C25.3027 14.7345 25.1343 14.84 24.9471 14.84C24.6753 14.84 24.4544 14.6192 24.4544 14.3474C24.4544 14.0756 24.6753 13.8548 24.9471 13.8548ZM37.5214 3.02734C36.8247 3.02734 36.2601 3.59195 36.2601 4.28862C36.2601 4.78404 36.5466 5.21169 36.9624 5.41783V7.82718L31.0012 13.7884H26.0763C25.8701 13.3726 25.4425 13.0861 24.9471 13.0861C24.2504 13.0861 23.6858 13.6507 23.6858 14.3474C23.6858 15.0441 24.2504 15.6087 24.9471 15.6087C25.4425 15.6087 25.8701 15.3222 26.0763 14.9064H31.4645L38.0811 8.28976V5.41713C38.4969 5.21099 38.7834 4.78335 38.7834 4.28792C38.7827 3.59195 38.2181 3.02734 37.5214 3.02734Z" fill="#27337B"/>
<path d="M29.6089 2.16855C29.7403 2.16855 29.864 2.21956 29.9569 2.31249C30.0897 2.44526 30.1344 2.63882 30.0736 2.8184L29.996 3.0483L29.7662 3.12586C29.7144 3.14333 29.6613 3.15171 29.6061 3.15171C29.4748 3.15171 29.3518 3.1007 29.2595 3.00847C29.1666 2.91553 29.1156 2.79185 29.1156 2.66048C29.1156 2.52911 29.1666 2.40543 29.2595 2.31249C29.3525 2.21956 29.4776 2.16855 29.6089 2.16855ZM24.9474 10.0814C25.1347 10.0814 25.3038 10.1869 25.3877 10.3567L25.4953 10.574L25.3877 10.7913C25.3031 10.9611 25.1347 11.0667 24.9474 11.0667C24.6756 11.0667 24.4548 10.8458 24.4548 10.574C24.4548 10.3022 24.6756 10.0814 24.9474 10.0814ZM29.6089 1.3999C29.2861 1.3999 28.9633 1.52289 28.7173 1.76955C28.2247 2.26218 28.2247 3.06087 28.7173 3.55281C28.9633 3.79877 29.2847 3.92106 29.6068 3.92106C29.7438 3.92106 29.8807 3.8987 30.0114 3.85468L32.9574 6.80068L29.7431 10.015H26.076C25.8698 9.59925 25.4422 9.31275 24.9467 9.31275C24.2501 9.31275 23.6855 9.87736 23.6855 10.574C23.6855 11.2707 24.2501 11.8353 24.9467 11.8353C25.4422 11.8353 25.8698 11.5488 26.076 11.133H30.2064L34.5387 6.80068L30.8024 3.06437C30.9506 2.62485 30.8506 2.11964 30.5006 1.76955C30.2546 1.52358 29.9318 1.3999 29.6089 1.3999Z" fill="#27337B"/>
<path d="M23.3197 2.16855C23.4511 2.16855 23.5748 2.21956 23.6677 2.31249C23.8005 2.44526 23.8452 2.63882 23.7844 2.8184L23.7068 3.0483L23.4769 3.12586C23.4252 3.14333 23.3721 3.15171 23.3169 3.15171C23.1855 3.15171 23.0626 3.1007 22.9703 3.00847C22.7782 2.81631 22.7782 2.50396 22.9703 2.31179C23.0647 2.22026 23.1883 2.16855 23.3197 2.16855ZM26.5697 5.41782C26.701 5.41782 26.824 5.46883 26.9163 5.56107C27.1084 5.75323 27.1084 6.06558 26.9163 6.25774C26.8233 6.35067 26.6996 6.40168 26.5683 6.40168C26.4369 6.40168 26.3132 6.35067 26.2203 6.25774C26.0875 6.12497 26.0428 5.93141 26.1036 5.75183L26.1812 5.52193L26.4111 5.44437C26.4614 5.4262 26.5152 5.41782 26.5697 5.41782ZM23.3197 1.3999C22.9969 1.3999 22.674 1.52289 22.4281 1.76955C21.9354 2.26218 21.9354 3.06087 22.4281 3.55281C22.674 3.79877 22.9955 3.92106 23.3176 3.92106C23.4546 3.92106 23.5915 3.8987 23.7222 3.85467L25.3734 5.50586C25.2252 5.94539 25.3252 6.4506 25.6752 6.80068C25.9212 7.04665 26.244 7.17033 26.5669 7.17033C26.8897 7.17033 27.2125 7.04734 27.4585 6.80068C27.9511 6.30805 27.9511 5.50936 27.4585 5.01742C27.2125 4.77146 26.8911 4.64917 26.569 4.64917C26.432 4.64917 26.2951 4.67153 26.1644 4.71556L24.5132 3.06437C24.6613 2.62484 24.5614 2.11963 24.2113 1.76955C23.9654 1.52358 23.6425 1.3999 23.3197 1.3999Z" fill="#27337B"/>
<path d="M36.63 13.4884C36.7614 13.4884 36.8851 13.5394 36.978 13.6323C37.1702 13.8245 37.1702 14.1368 36.978 14.329C36.8858 14.4212 36.7628 14.4722 36.6314 14.4722C36.5769 14.4722 36.5231 14.4632 36.4714 14.4464L36.2415 14.3688L36.164 14.1389C36.1039 13.9593 36.1486 13.7658 36.2807 13.633C36.375 13.5401 36.4987 13.4884 36.63 13.4884ZM36.6321 19.2532C36.7635 19.2532 36.8865 19.3042 36.9787 19.3965C37.1709 19.5886 37.1709 19.901 36.9787 20.0931C36.8858 20.1861 36.7621 20.2371 36.6307 20.2371C36.4994 20.2371 36.3757 20.1861 36.2827 20.0931C36.15 19.9604 36.1053 19.7668 36.166 19.5872L36.2436 19.3573L36.4735 19.2798C36.5238 19.2616 36.5776 19.2532 36.6321 19.2532ZM36.63 12.7197C36.3072 12.7197 35.9844 12.8427 35.7384 13.0894C35.3883 13.4395 35.2884 13.9447 35.4365 14.3842L34.4471 15.3736V18.3525L35.4365 19.3419C35.2884 19.7815 35.3883 20.2867 35.7384 20.6368C35.9844 20.8827 36.3072 21.0064 36.63 21.0064C36.9529 21.0064 37.2757 20.8834 37.5217 20.6368C38.0143 20.1441 38.0143 19.3454 37.5217 18.8535C37.2757 18.6075 36.9536 18.4853 36.6321 18.4853C36.4952 18.4853 36.3582 18.5076 36.2275 18.5516L35.5658 17.8899V15.8376L36.2275 15.1759C36.3589 15.2199 36.4959 15.2423 36.6321 15.2423C36.9543 15.2423 37.2764 15.12 37.5217 14.874C38.0143 14.3814 38.0143 13.5827 37.5217 13.0908C37.2757 12.8434 36.9529 12.7197 36.63 12.7197Z" fill="#27337B"/>
<path d="M5.71058 19.7774C5.84195 19.7774 5.96563 19.8284 6.05856 19.9214C6.19133 20.0541 6.23605 20.2477 6.17526 20.4273L6.09769 20.6572L5.8678 20.7347C5.81609 20.7522 5.76299 20.7606 5.70778 20.7606C5.57641 20.7606 5.45343 20.7096 5.36119 20.6174C5.26826 20.5244 5.21725 20.4007 5.21725 20.2694C5.21725 20.138 5.26826 20.0143 5.36119 19.9214C5.45413 19.8284 5.57921 19.7774 5.71058 19.7774ZM24.94 27.6903C25.2118 27.6903 25.4326 27.9111 25.4326 28.1829C25.4326 28.4547 25.2118 28.6755 24.94 28.6755C24.7527 28.6755 24.5836 28.57 24.4998 28.4002L24.3921 28.1829L24.4998 27.9656C24.5836 27.7958 24.7527 27.6903 24.94 27.6903ZM5.71058 19.0088C5.38775 19.0088 5.06492 19.1318 4.81895 19.3784C4.32632 19.8711 4.32632 20.6698 4.81895 21.1617C5.06492 21.4077 5.38635 21.5299 5.70848 21.5299C5.84544 21.5299 5.9824 21.5076 6.11307 21.4636L13.3914 28.7419H23.8108C24.0169 29.1577 24.4445 29.4442 24.94 29.4442C25.6366 29.4442 26.2013 28.8796 26.2013 28.1829C26.2013 27.4862 25.6366 26.9216 24.94 26.9216C24.4445 26.9216 24.0169 27.2081 23.8108 27.6239H13.8547L6.90407 20.6733C7.05221 20.2337 6.95229 19.7285 6.60221 19.3784C6.35624 19.1325 6.03341 19.0088 5.71058 19.0088Z" fill="#27337B"/>
<path d="M52.9811 19.7774C53.1124 19.7774 53.2361 19.8284 53.329 19.9214C53.5212 20.1135 53.5212 20.4259 53.329 20.6181C53.2368 20.7103 53.1138 20.7613 52.9825 20.7613C52.928 20.7613 52.8741 20.7522 52.8224 20.7355L52.5925 20.6579L52.515 20.428C52.4549 20.2484 52.4996 20.0549 52.6317 19.9221C52.726 19.8291 52.8497 19.7774 52.9811 19.7774ZM47.8863 27.6309L48.1037 27.7385C48.2735 27.823 48.379 27.9915 48.379 28.1794C48.379 28.4512 48.1582 28.6721 47.8863 28.6721C47.6145 28.6721 47.3937 28.4512 47.3937 28.1794C47.3937 27.9922 47.4992 27.8231 47.669 27.7385L47.8863 27.6309ZM52.9811 19.0088C52.6582 19.0088 52.3354 19.1318 52.0894 19.3784C51.7393 19.7285 51.6394 20.2337 51.7876 20.6733L47.328 25.1328V27.0502C46.9123 27.2563 46.6258 27.684 46.6258 28.1794C46.6258 28.8761 47.1904 29.4407 47.887 29.4407C48.5837 29.4407 49.1483 28.8761 49.1483 28.1794C49.1483 27.684 48.8618 27.2563 48.4461 27.0502V25.5961L52.5786 21.4636C52.7099 21.5076 52.8469 21.5299 52.9832 21.5299C53.3053 21.5299 53.6274 21.4077 53.8727 21.1617C54.3653 20.6691 54.3653 19.8704 53.8727 19.3784C53.6267 19.1325 53.3039 19.0088 52.9811 19.0088Z" fill="#27337B"/>
<path d="M28.7168 31.4674C28.9886 31.4674 29.2094 31.6882 29.2094 31.96C29.2094 32.1473 29.1039 32.3164 28.9341 32.4002L28.7168 32.5078L28.4995 32.4002C28.3297 32.3157 28.2242 32.1473 28.2242 31.96C28.2242 31.6882 28.4457 31.4674 28.7168 31.4674ZM28.7133 52.8462C28.9851 52.8462 29.2059 53.067 29.2059 53.3388C29.2059 53.6106 28.9851 53.8314 28.7133 53.8314C28.526 53.8314 28.3569 53.7259 28.2731 53.5561L28.1655 53.3388L28.2731 53.1215C28.3569 52.9517 28.526 52.8462 28.7133 52.8462ZM28.7168 30.6987C28.0201 30.6987 27.4555 31.2633 27.4555 31.96C27.4555 32.4554 27.742 32.8831 28.1578 33.0892V48.0764L22.3363 53.8978H27.5848C27.7909 54.3136 28.2186 54.6001 28.714 54.6001C29.4107 54.6001 29.9753 54.0355 29.9753 53.3388C29.9753 52.6421 29.4107 52.0775 28.714 52.0775C28.2186 52.0775 27.7909 52.364 27.5848 52.7798H25.0357L29.2765 48.539V33.0885C29.6923 32.8824 29.9788 32.4547 29.9788 31.9593C29.9781 31.2633 29.4135 30.6987 28.7168 30.6987Z" fill="#27337B"/>
<path d="M54.2389 24.8087C54.3703 24.8087 54.494 24.8597 54.5869 24.9526C54.7791 25.1448 54.7791 25.4571 54.5869 25.6493C54.4947 25.7415 54.3717 25.7926 54.2403 25.7926C54.1858 25.7926 54.132 25.7835 54.0803 25.7667L53.8504 25.6891L53.7729 25.4592C53.7128 25.2797 53.7575 25.0861 53.8896 24.9533C53.9839 24.8604 54.1076 24.8087 54.2389 24.8087ZM43.8573 47.7555L44.0747 47.8631C44.2445 47.9477 44.35 48.1161 44.35 48.3041C44.35 48.5759 44.1292 48.7967 43.8573 48.7967C43.5855 48.7967 43.3647 48.5759 43.3647 48.3041C43.3647 48.1168 43.4702 47.9477 43.64 47.8631L43.8573 47.7555ZM54.2389 24.04C53.9161 24.04 53.5933 24.163 53.3473 24.4097C52.9972 24.7598 52.8973 25.265 53.0454 25.7045L52.056 26.694V31.3974H47.3526L43.2983 35.4516V47.1755C42.8826 47.3817 42.5961 47.8093 42.5961 48.3048C42.5961 49.0014 43.1607 49.566 43.8573 49.566C44.554 49.566 45.1186 49.0014 45.1186 48.3048C45.1186 47.8093 44.8321 47.3817 44.4164 47.1755V35.9149L47.8159 32.5154H53.1747V27.1565L53.8365 26.4948C53.9678 26.5388 54.1048 26.5612 54.241 26.5612C54.5632 26.5612 54.8853 26.4389 55.1306 26.1929C55.6232 25.7003 55.6232 24.9016 55.1306 24.4097C54.8846 24.1637 54.5618 24.04 54.2389 24.04Z" fill="#27337B"/>
<path d="M52.6113 35.2369C52.8831 35.2369 53.1039 35.4577 53.1039 35.7295C53.1039 36.0014 52.8831 36.2222 52.6113 36.2222C52.424 36.2222 52.2549 36.1167 52.1711 35.9469L52.0635 35.7295L52.1711 35.5122C52.2549 35.3424 52.424 35.2369 52.6113 35.2369ZM49.0699 43.2909C49.2013 43.2909 49.3243 43.3419 49.4165 43.4342C49.6087 43.6263 49.6087 43.9387 49.4165 44.1308C49.3236 44.2238 49.1999 44.2748 49.0685 44.2748C48.9372 44.2748 48.8135 44.2238 48.7206 44.1308C48.5878 43.9981 48.5431 43.8045 48.6039 43.6249L48.6814 43.395L48.9113 43.3175C48.9616 43.2993 49.0154 43.2909 49.0699 43.2909ZM52.6113 34.4683C52.1159 34.4683 51.6882 34.7548 51.4821 35.1705H48.6095L46.8842 36.8958V42.3902L47.8737 43.3797C47.7255 43.8192 47.8254 44.3244 48.1755 44.6745C48.4215 44.9204 48.7443 45.0441 49.0671 45.0441C49.39 45.0441 49.7128 44.9211 49.9588 44.6745C50.4514 44.1818 50.4514 43.3831 49.9588 42.8912C49.7128 42.6452 49.3907 42.523 49.0692 42.523C48.9323 42.523 48.7953 42.5453 48.6647 42.5893L48.0029 41.9276V37.3598L49.0727 36.29H51.4821C51.6882 36.7057 52.1159 36.9922 52.6113 36.9922C53.308 36.9922 53.8726 36.4276 53.8726 35.7309C53.8726 35.0343 53.308 34.4683 52.6113 34.4683Z" fill="#27337B"/>
<path d="M39.1478 50.6982C39.2791 50.6982 39.4021 50.7492 39.4943 50.8415C39.5873 50.9344 39.6383 51.0581 39.6383 51.1894C39.6383 51.3208 39.5873 51.4445 39.4943 51.5374C39.4014 51.6304 39.2777 51.6814 39.1464 51.6814C39.015 51.6814 38.8913 51.6304 38.7984 51.5374C38.6656 51.4047 38.6209 51.2111 38.6817 51.0315L38.7592 50.8016L38.9891 50.7241C39.0395 50.7066 39.0933 50.6982 39.1478 50.6982ZM32.4906 52.7868L32.7079 52.8944C32.8777 52.979 32.9832 53.1474 32.9832 53.3347C32.9832 53.6065 32.7624 53.8273 32.4906 53.8273C32.2188 53.8273 31.998 53.6065 31.998 53.3347C31.998 53.1474 32.1035 52.9783 32.2733 52.8944L32.4906 52.7868ZM31.9316 43.1851V52.2069C31.5158 52.413 31.2293 52.8406 31.2293 53.3361C31.2293 54.0327 31.7939 54.5973 32.4906 54.5973C33.1873 54.5973 33.7519 54.0327 33.7519 53.3361C33.7519 52.8406 33.4654 52.413 33.0496 52.2069V45.8844L37.9522 50.787C37.804 51.2265 37.904 51.7317 38.254 52.0818C38.5 52.3277 38.8228 52.4514 39.1457 52.4514C39.4685 52.4514 39.7913 52.3284 40.0373 52.0818C40.5299 51.5891 40.5299 50.7905 40.0373 50.2985C39.7913 50.0525 39.4699 49.9303 39.1478 49.9303C39.0108 49.9303 38.8738 49.9526 38.7432 49.9966L31.9316 43.1851Z" fill="#27337B"/>
<path d="M24.9434 32.7252C25.2153 32.7252 25.4361 32.946 25.4361 33.2178C25.4361 33.4051 25.3306 33.5742 25.1607 33.658L24.9434 33.7657L24.7261 33.658C24.5563 33.5735 24.4508 33.4051 24.4508 33.2178C24.4508 32.946 24.6723 32.7252 24.9434 32.7252ZM20.8025 50.6982C20.857 50.6982 20.9108 50.7073 20.9625 50.7241L21.1924 50.8016L21.27 51.0315C21.3301 51.2111 21.2854 51.4047 21.1533 51.5374C21.0604 51.6304 20.9367 51.6814 20.8053 51.6814C20.674 51.6814 20.5503 51.6304 20.4573 51.5374C20.3644 51.4445 20.3134 51.3208 20.3134 51.1894C20.3134 51.0581 20.3644 50.9344 20.4573 50.8415C20.5482 50.7485 20.6712 50.6982 20.8025 50.6982ZM24.9434 31.9565C24.2468 31.9565 23.6822 32.5211 23.6822 33.2178C23.6822 33.7132 23.9686 34.1409 24.3844 34.347V46.8186L21.2071 49.9959C21.0758 49.9519 20.9388 49.9296 20.8025 49.9296C20.4804 49.9296 20.1583 50.0518 19.913 50.2978C19.4204 50.7904 19.4204 51.5891 19.913 52.0811C20.159 52.327 20.4818 52.4507 20.8046 52.4507C21.1275 52.4507 21.4503 52.3277 21.6963 52.0811C22.0463 51.731 22.1463 51.2258 21.9981 50.7862L25.5031 47.2812V34.3463C25.9189 34.1402 26.2054 33.7125 26.2054 33.2171C26.2047 32.5211 25.6401 31.9565 24.9434 31.9565Z" fill="#27337B"/>
<path d="M8.22631 28.5821C8.35768 28.5821 8.48136 28.6331 8.5743 28.7261C8.70706 28.8588 8.75178 29.0524 8.69099 29.232L8.61343 29.4619L8.38353 29.5394C8.33182 29.5569 8.27872 29.5653 8.22351 29.5653C8.09214 29.5653 7.96916 29.5143 7.87692 29.422C7.68476 29.2299 7.68476 28.9175 7.87692 28.7254C7.97126 28.6338 8.09494 28.5821 8.22631 28.5821ZM20.2808 40.6359C20.4121 40.6359 20.5351 40.6869 20.6273 40.7791C20.8195 40.9713 20.8195 41.2836 20.6273 41.4758C20.5344 41.5687 20.4107 41.6197 20.2794 41.6197C20.148 41.6197 20.0243 41.5687 19.9314 41.4758C19.7986 41.343 19.7539 41.1495 19.8147 40.9699L19.8922 40.74L20.1221 40.6624C20.1724 40.6443 20.2263 40.6359 20.2808 40.6359ZM8.22631 27.8135C7.90348 27.8135 7.58065 27.9365 7.33468 28.1831C6.84205 28.6758 6.84205 29.4744 7.33468 29.9664C7.58065 30.2123 7.90208 30.3346 8.22421 30.3346C8.36117 30.3346 8.49813 30.3123 8.6288 30.2682L19.0845 40.7239C18.9363 41.1634 19.0363 41.6686 19.3863 42.0187C19.6323 42.2647 19.9551 42.3884 20.278 42.3884C20.6008 42.3884 20.9236 42.2654 21.1696 42.0187C21.6622 41.5261 21.6622 40.7274 21.1696 40.2355C20.9236 39.9895 20.6022 39.8672 20.2801 39.8672C20.1431 39.8672 20.0061 39.8896 19.8755 39.9336L9.41981 29.4779C9.56795 29.0384 9.46802 28.5332 9.11794 28.1831C8.87197 27.9372 8.54914 27.8135 8.22631 27.8135Z" fill="#27337B"/>
<path d="M17.4006 31.4635C17.5878 31.4635 17.7569 31.569 17.8408 31.7388L17.9484 31.9561L17.8408 32.1734C17.7562 32.3432 17.5878 32.4487 17.4006 32.4487C17.1287 32.4487 16.9079 32.2279 16.9079 31.9561C16.9079 31.6843 17.1287 31.4635 17.4006 31.4635ZM21.1704 35.1774L21.3877 35.285C21.5575 35.3696 21.663 35.538 21.663 35.7253C21.663 35.9971 21.4422 36.2179 21.1704 36.2179C20.8986 36.2179 20.6778 35.9971 20.6778 35.7253C20.6778 35.538 20.7833 35.3689 20.9531 35.285L21.1704 35.1774ZM17.4006 30.6948C16.7039 30.6948 16.1393 31.2594 16.1393 31.9561C16.1393 32.6528 16.7039 33.2174 17.4006 33.2174C17.896 33.2174 18.3236 32.9309 18.5298 32.5151H20.6114V34.5967C20.1956 34.8029 19.9091 35.2305 19.9091 35.726C19.9091 36.4226 20.4737 36.9872 21.1704 36.9872C21.8671 36.9872 22.4317 36.4226 22.4317 35.726C22.4317 35.2305 22.1452 34.8029 21.7294 34.5967V31.3971H18.5298C18.3229 30.9813 17.896 30.6948 17.4006 30.6948Z" fill="#27337B"/>
<path d="M11.9996 38.6441C12.131 38.6441 12.2546 38.6951 12.3476 38.7881C12.4803 38.9208 12.5251 39.1144 12.4643 39.294L12.3867 39.5239L12.1568 39.6014C12.1051 39.6189 12.052 39.6273 11.9968 39.6273C11.8654 39.6273 11.7424 39.5763 11.6502 39.4841C11.5573 39.3911 11.5063 39.2674 11.5063 39.1361C11.5063 39.0047 11.5573 38.881 11.6502 38.7881C11.7431 38.6951 11.8682 38.6441 11.9996 38.6441ZM17.0293 49.4401C17.0838 49.4401 17.1376 49.4492 17.1893 49.466L17.4192 49.5435L17.4968 49.7734C17.5569 49.953 17.5122 50.1465 17.3801 50.2793C17.2872 50.3723 17.1635 50.4233 17.0321 50.4233C16.9007 50.4233 16.7771 50.3723 16.6841 50.2793C16.5912 50.1864 16.5402 50.0627 16.5402 49.9313C16.5402 49.8 16.5912 49.6763 16.6841 49.5833C16.775 49.4904 16.8979 49.4401 17.0293 49.4401ZM11.9996 37.8755C11.6768 37.8755 11.3539 37.9985 11.108 38.2451C10.6153 38.7378 10.6153 39.5365 11.108 40.0284C11.3539 40.2744 11.6754 40.3966 11.9975 40.3966C12.1344 40.3966 12.2714 40.3743 12.4021 40.3303L19.1214 47.0496L17.4332 48.7378C17.3018 48.6938 17.1649 48.6715 17.0286 48.6715C16.7065 48.6715 16.3844 48.7937 16.1391 49.0397C15.6465 49.5323 15.6465 50.331 16.1391 50.823C16.385 51.0689 16.7079 51.1926 17.0307 51.1926C17.3535 51.1926 17.6764 51.0696 17.9223 50.823C18.2724 50.4729 18.3723 49.9677 18.2242 49.5281L20.7027 47.0496L13.1931 39.54C13.3412 39.1004 13.2413 38.5952 12.8912 38.2451C12.6452 37.9992 12.3224 37.8755 11.9996 37.8755Z" fill="#27337B"/>
<path d="M6.96879 39.9019C7.10016 39.9019 7.22384 39.953 7.31678 40.0459C7.44954 40.1787 7.49426 40.3722 7.43347 40.5518L7.35591 40.7817L7.12601 40.8593C7.0743 40.8767 7.0212 40.8851 6.96599 40.8851C6.83462 40.8851 6.71164 40.8341 6.6194 40.7419C6.42724 40.5497 6.42724 40.2374 6.6194 40.0452C6.71374 39.9537 6.83742 39.9019 6.96879 39.9019ZM12.7343 45.6668C12.8657 45.6668 12.9887 45.7178 13.0809 45.81C13.2731 46.0022 13.2731 46.3145 13.0809 46.5067C12.988 46.5996 12.8643 46.6506 12.7329 46.6506C12.6016 46.6506 12.4779 46.5996 12.3849 46.5067C12.2522 46.3739 12.2075 46.1804 12.2682 46.0008L12.3458 45.7709L12.5757 45.6933C12.626 45.6752 12.6798 45.6668 12.7343 45.6668ZM6.96879 39.1333C6.64596 39.1333 6.32313 39.2563 6.07716 39.5029C5.58453 39.9956 5.58453 40.7943 6.07716 41.2862C6.32313 41.5322 6.64456 41.6545 6.96669 41.6545C7.10365 41.6545 7.24061 41.6321 7.37128 41.5881L11.538 45.7548C11.3899 46.1943 11.4898 46.6996 11.8399 47.0496C12.0859 47.2956 12.4087 47.4193 12.7315 47.4193C13.0544 47.4193 13.3772 47.2963 13.6232 47.0496C14.1158 46.557 14.1158 45.7583 13.6232 45.2664C13.3772 45.0204 13.0558 44.8981 12.7336 44.8981C12.5967 44.8981 12.4597 44.9205 12.329 44.9645L8.16228 40.7978C8.31042 40.3582 8.2105 39.853 7.86042 39.5029C7.61445 39.257 7.29162 39.1333 6.96879 39.1333Z" fill="#27337B"/>
</svg>
