<svg width="25" height="24" viewBox="0 0 25 24" fill="none" xmlns="http://www.w3.org/2000/svg">
<path d="M12.0999 6C11.3582 6 10.6332 6.21993 10.0165 6.63199C9.39984 7.04404 8.91919 7.62971 8.63537 8.31494C8.35154 9.00016 8.27727 9.75416 8.42197 10.4816C8.56666 11.209 8.92382 11.8772 9.44826 12.4017C9.97271 12.9261 10.6409 13.2833 11.3683 13.4279C12.0958 13.5726 12.8498 13.4984 13.535 13.2145C14.2202 12.9307 14.8059 12.4501 15.2179 11.8334C15.63 11.2167 15.8499 10.4917 15.8499 9.75C15.8499 8.75544 15.4548 7.80161 14.7516 7.09835C14.0483 6.39509 13.0945 6 12.0999 6ZM12.0999 12C11.6549 12 11.2199 11.868 10.8499 11.6208C10.4799 11.3736 10.1915 11.0222 10.0212 10.611C9.85089 10.1999 9.80633 9.7475 9.89315 9.31105C9.97996 8.87459 10.1943 8.47368 10.5089 8.15901C10.8236 7.84434 11.2245 7.63005 11.661 7.54323C12.0974 7.45642 12.5498 7.50097 12.961 7.67127C13.3721 7.84157 13.7235 8.12996 13.9707 8.49997C14.218 8.86998 14.3499 9.30499 14.3499 9.75C14.3499 10.3467 14.1129 10.919 13.6909 11.341C13.2689 11.7629 12.6967 12 12.0999 12ZM12.0999 1.5C9.91264 1.50248 7.81566 2.37247 6.26902 3.91911C4.72239 5.46575 3.8524 7.56273 3.84991 9.75C3.84991 12.6938 5.21023 15.8138 7.78741 18.7734C8.94543 20.1108 10.2488 21.3151 11.6734 22.3641C11.7995 22.4524 11.9497 22.4998 12.1037 22.4998C12.2576 22.4998 12.4079 22.4524 12.534 22.3641C13.9559 21.3147 15.2567 20.1104 16.4124 18.7734C18.9859 15.8138 20.3499 12.6938 20.3499 9.75C20.3474 7.56273 19.4774 5.46575 17.9308 3.91911C16.3842 2.37247 14.2872 1.50248 12.0999 1.5ZM12.0999 20.8125C10.5502 19.5938 5.34991 15.1172 5.34991 9.75C5.34991 7.95979 6.06107 6.2429 7.32694 4.97703C8.59281 3.71116 10.3097 3 12.0999 3C13.8901 3 15.607 3.71116 16.8729 4.97703C18.1388 6.2429 18.8499 7.95979 18.8499 9.75C18.8499 15.1153 13.6496 19.5938 12.0999 20.8125Z" fill="white"/>
</svg>
