<svg width="25" height="24" viewBox="0 0 25 24" fill="none" xmlns="http://www.w3.org/2000/svg">
<path d="M20.9471 14.8554L16.5305 12.8764L16.5184 12.8707C16.2891 12.7727 16.039 12.7333 15.7906 12.7562C15.5423 12.7792 15.3036 12.8636 15.0962 13.002C15.0717 13.0181 15.0483 13.0357 15.0259 13.0545L12.744 14.9998C11.2984 14.2976 9.80586 12.8164 9.10367 11.3895L11.0518 9.07294C11.0705 9.0495 11.0884 9.02606 11.1052 9.00075C11.2406 8.79384 11.3228 8.55667 11.3444 8.31035C11.366 8.06402 11.3263 7.81618 11.229 7.58887V7.57762L9.2443 3.15356C9.11562 2.85662 8.89435 2.60926 8.61354 2.44841C8.33272 2.28756 8.00741 2.22184 7.68617 2.26106C6.41583 2.42822 5.24978 3.05209 4.4058 4.01615C3.56182 4.98021 3.09763 6.21852 3.09992 7.49981C3.09992 14.9436 9.15617 20.9998 16.5999 20.9998C17.8812 21.0021 19.1195 20.5379 20.0836 19.6939C21.0476 18.85 21.6715 17.6839 21.8387 16.4136C21.878 16.0924 21.8124 15.7672 21.6517 15.4864C21.491 15.2056 21.2439 14.9843 20.9471 14.8554ZM16.5999 19.4998C13.4184 19.4963 10.3682 18.2309 8.11848 15.9813C5.86879 13.7316 4.6034 10.6813 4.59992 7.49981C4.5964 6.58433 4.92622 5.69887 5.5278 5.00879C6.12938 4.3187 6.96158 3.87118 7.86899 3.74981C7.86862 3.75355 7.86862 3.75732 7.86899 3.76106L9.83774 8.16731L7.89992 10.4867C7.88025 10.5093 7.86239 10.5335 7.84649 10.5589C7.70541 10.7754 7.62264 11.0246 7.60622 11.2825C7.58979 11.5404 7.64026 11.7981 7.75274 12.0307C8.60211 13.7679 10.3524 15.5051 12.1084 16.3536C12.3427 16.465 12.6019 16.5137 12.8607 16.495C13.1195 16.4762 13.3691 16.3907 13.5849 16.2467C13.609 16.2305 13.6322 16.2129 13.6543 16.1942L15.9334 14.2498L20.3396 16.2232C20.3396 16.2232 20.3471 16.2232 20.3499 16.2232C20.23 17.1319 19.7832 17.9658 19.093 18.5689C18.4028 19.172 17.5165 19.5029 16.5999 19.4998Z" fill="white"/>
</svg>
