<svg width="25" height="24" viewBox="0 0 25 24" fill="none" xmlns="http://www.w3.org/2000/svg">
<path d="M20.3499 3.75H3.84991C3.45209 3.75 3.07056 3.90804 2.78925 4.18934C2.50795 4.47064 2.34991 4.85218 2.34991 5.25V18.75C2.34991 19.1478 2.50795 19.5294 2.78925 19.8107C3.07056 20.092 3.45209 20.25 3.84991 20.25H20.3499C20.7477 20.25 21.1293 20.092 21.4106 19.8107C21.6919 19.5294 21.8499 19.1478 21.8499 18.75V5.25C21.8499 4.85218 21.6919 4.47064 21.4106 4.18934C21.1293 3.90804 20.7477 3.75 20.3499 3.75ZM20.3499 11.25H15.8499V5.25H20.3499V11.25ZM3.84991 5.25H14.3499V18.75H3.84991V5.25ZM20.3499 18.75H15.8499V12.75H20.3499V18.75ZM16.9749 8.25C16.9749 8.0275 17.0409 7.80999 17.1645 7.62498C17.2881 7.43998 17.4638 7.29578 17.6694 7.21064C17.875 7.12549 18.1012 7.10321 18.3194 7.14662C18.5376 7.19002 18.7381 7.29717 18.8954 7.4545C19.0527 7.61184 19.1599 7.81229 19.2033 8.03052C19.2467 8.24875 19.2244 8.47495 19.1393 8.68052C19.0541 8.88609 18.9099 9.06179 18.7249 9.1854C18.5399 9.30902 18.3224 9.375 18.0999 9.375C17.8015 9.375 17.5154 9.25647 17.3044 9.0455C17.0934 8.83452 16.9749 8.54837 16.9749 8.25ZM19.2249 15.75C19.2249 15.9725 19.1589 16.19 19.0353 16.375C18.9117 16.56 18.736 16.7042 18.5304 16.7894C18.3249 16.8745 18.0987 16.8968 17.8804 16.8534C17.6622 16.81 17.4618 16.7028 17.3044 16.5455C17.1471 16.3882 17.0399 16.1877 16.9965 15.9695C16.9531 15.7512 16.9754 15.525 17.0606 15.3195C17.1457 15.1139 17.2899 14.9382 17.4749 14.8146C17.6599 14.691 17.8774 14.625 18.0999 14.625C18.3983 14.625 18.6844 14.7435 18.8954 14.9545C19.1064 15.1655 19.2249 15.4516 19.2249 15.75ZM12.8265 15.5625C12.5838 14.6563 12.0083 13.875 11.2149 13.3744C11.6363 12.9555 11.9238 12.421 12.041 11.8386C12.1582 11.2562 12.0998 10.652 11.8733 10.1028C11.6467 9.55361 11.2622 9.08402 10.7685 8.75358C10.2747 8.42315 9.69402 8.24675 9.09991 8.24675C8.50581 8.24675 7.92508 8.42315 7.43135 8.75358C6.93761 9.08402 6.55311 9.55361 6.32657 10.1028C6.10003 10.652 6.04167 11.2562 6.15887 11.8386C6.27608 12.421 6.56357 12.9555 6.98491 13.3744C6.19203 13.8755 5.61673 14.6566 5.37335 15.5625C5.32362 15.7552 5.35248 15.9598 5.45357 16.1312C5.55467 16.3026 5.71972 16.4268 5.91241 16.4766C6.10511 16.5263 6.30967 16.4974 6.48109 16.3963C6.65251 16.2952 6.77675 16.1302 6.82648 15.9375C7.07398 14.9766 8.05085 14.25 9.09991 14.25C10.149 14.25 11.1268 14.9747 11.3734 15.9375C11.4231 16.1302 11.5473 16.2952 11.7187 16.3963C11.8902 16.4974 12.0947 16.5263 12.2874 16.4766C12.4801 16.4268 12.6452 16.3026 12.7463 16.1312C12.8473 15.9598 12.8762 15.7552 12.8265 15.5625ZM7.59991 11.25C7.59991 10.9533 7.68789 10.6633 7.85271 10.4166C8.01753 10.17 8.2518 9.97771 8.52589 9.86418C8.79998 9.75065 9.10158 9.72094 9.39255 9.77882C9.68352 9.8367 9.9508 9.97956 10.1606 10.1893C10.3704 10.3991 10.5132 10.6664 10.5711 10.9574C10.629 11.2483 10.5993 11.5499 10.4857 11.824C10.3722 12.0981 10.1799 12.3324 9.93327 12.4972C9.6866 12.662 9.39659 12.75 9.09991 12.75C8.70209 12.75 8.32056 12.592 8.03925 12.3107C7.75795 12.0294 7.59991 11.6478 7.59991 11.25Z" fill="white"/>
</svg>
